Patient4_TMGait_0pt4_02_right_03_EMG.mot
version=1
nRows=16
nColumns=33
inDegrees=no
endheader
time	1LAddLong	2LGlutMax	3LGlutMed	4LIliopsoas	5LSemiMemb	6LBicFemLong	7LRecFem	8LVastMed	9LVastLat	10LGasMed	11LTibAnt	12lTibPost	13LPeroneusLong	14LSol	15LExtDigLong	16LFlexDigLong	17RAddLong	18RGlutMax	19RGlutMed	20RIliopsoas	21RSemiMemb	22RBicFemLong	23RRecFem	24RVastMed	25RVastLat	26RGasMed	27RTibAnt	28RTibPost	29RPeroneusLong	30RSol	31RExtDigLong	32RFlexDigLong
4.685	-0.001526	-0.059357	0.01709	0.005188	0.031586	0.070496	0.042725	0.009613	-0.019226	-0.002136	0.035248	0.005188	0.53238	0.061646	0.099487	-0.005798	-0.016632	-0.012665	-0.09552	-0.087128	-0.020142	0.06012	-0.10101	-0.02594	0.0177	-0.006714	0.055237	-0.008392	-0.25497	0.029449	-0.002747	-0.015717
4.686	0.007324	-0.013885	0.03006	0.019379	-0.005798	0.017853	0.019226	0.000916	-0.019836	0.085602	0.019684	0.016327	0.15076	-0.21255	0.065002	0.005035	-0.022278	0.010223	-0.10346	-0.096741	0.032806	0.074158	-0.072479	-0.014496	0.009155	-0.003357	0.01709	-0.006409	-0.61142	0.001221	-0.003357	-0.012665
4.687	0.007477	-0.043182	0.023193	0.032806	-0.004883	-0.018921	0.017853	0.001221	0.006714	0.074921	0.000763	0.014648	0.57068	-0.21362	-0.045471	0.02182	-0.018921	0.039978	0.062866	-0.054321	0.28732	0.034637	-0.11185	-0.012817	0.006714	0.000153	0.008545	-0.004578	-0.38223	0.050049	-0.000916	-0.014191
4.688	0.007935	-0.044556	-0.003967	0.030975	0.032959	-0.025177	0.022736	0.000763	0.002594	0.052032	-0.007019	-0.016937	0.6073	0.059662	-0.058746	0.041351	-0.033112	0.059662	-0.32074	0.036163	0.18417	-0.023346	-0.041046	0.001221	0.014343	-0.001221	0.037842	-0.012207	-0.065613	0.011749	-0.002594	-0.018311
4.689	0.002136	-0.082245	0.011292	0.03479	0.03479	-0.039673	0.016937	-0.000153	0.013733	0.18478	-0.013123	-0.032501	-0.41779	0.28503	0.049744	0.011902	-0.037079	-0.007019	-0.11643	0.11505	0.11093	0.043488	-0.061798	-0.003204	0.009155	0	0.032349	-0.007172	0.35965	0.020752	-0.001984	-0.010376
4.69	0.00824	-0.061646	0.003204	0.022888	0.020599	-0.02121	0.011597	-0.001984	0.043488	0.233	0.027161	-0.027313	-0.33478	0.24017	0.064392	-0.010681	-0.009918	-0.063934	-0.23178	0.10773	-0.063477	0.047607	-0.053253	-0.020294	0.002594	0.002899	0.018768	-0.002289	0.46265	-0.00412	-0.00061	-0.012512
4.691	0.005188	-0.066986	-0.036774	0.013885	0.028381	-0.027618	0.02243	0.002747	0.040588	-0.060577	-0.013885	-0.15656	0.23407	0.006714	0.034027	-0.088501	-0.001678	-0.059204	-0.17334	0.055695	-0.1329	0.063171	-0.054474	-0.045624	0.000458	0.005951	0.015869	-0.007629	0.32364	0.019226	-0.00412	-0.007019
4.692	0.005035	-0.043945	-0.029755	0.015564	0.022125	-0.010529	0.019379	0.000916	0.036469	0.023956	-0.005035	0.001221	0.079193	-0.059662	-0.007324	-0.035858	-0.009766	0.011139	-0.1651	-0.035248	-0.037537	0.069275	-0.077667	-0.01709	0.017395	0.003357	0.034943	-0.005798	0.16449	0.011597	-0.001984	-0.005646
4.693	0.007629	-0.013733	-0.032196	0.002899	0.010681	-0.000916	0.010529	0.004883	0.031738	0.18967	0.018921	0.17075	-0.10544	-0.002747	-0.067139	0.06134	0.002747	0.046234	-0.32089	-0.072327	0.006104	0.00824	-0.11444	-0.024872	0.028839	0.002289	0.022278	-0.006256	0.086212	0.002594	-0.002289	0.001221
4.694	0	-0.066986	-0.007477	0.014343	0.011597	-0.011139	0.023651	0	0.050354	0.16937	0.018463	0.033569	-0.11337	0.11673	-0.055542	-0.16785	0.004883	-0.019684	0.003967	-0.19196	-0.16052	0.034943	-0.096893	-0.049133	0.029907	0.008698	0.023804	-0.005188	0.06073	0.003357	-0.007935	0.007935
4.695	0.00824	-0.096588	0.013428	-0.005646	0.01236	-0.003357	0.028992	-0.004272	0.042877	0.009003	0.011292	-0.08255	-0.22903	0.29892	-0.030823	0.040131	-0.006409	0.010529	0.93018	-0.25879	-0.11963	0.012207	-0.077667	-0.0177	0.052185	-0.001678	0.015259	-0.002899	0.045624	0.015106	0.00061	0.011292
4.696	0.005188	-0.073395	0.04715	0.017242	0.009613	-0.032806	0.058746	-0.003357	0.022736	-0.16937	0.001678	-0.075531	0.054321	0.1326	0.037384	0.24414	-0.005341	-0.006561	0.2948	-0.052643	0.088196	-0.043793	-0.091248	-0.003662	0.031433	0.001373	0.010681	0.001221	0.034332	0.011292	-0.003967	0.013123
4.697	0.005188	-0.059357	0.018768	-0.018311	-0.00061	-0.000153	0.049133	-0.001984	0.036774	-0.38879	0.03891	0.02533	-0.06958	-0.3772	-0.031281	-0.051422	-0.019989	-0.046387	-0.054779	-0.057373	-0.015869	-0.041962	-0.103	0.005188	0.037842	0.001984	0.003815	-0.005188	0.053558	0.014191	0.007172	0.008392
4.698	-0.005951	-0.050201	-0.034637	-0.001831	0.003815	-0.016632	0.016785	-0.050354	0.029297	-0.26306	0.024567	0.10635	0.31067	-0.62836	0.024261	-0.1532	-0.019379	-0.001678	0.13748	0.065613	-0.006866	-0.10773	-0.066376	-0.03006	0.026398	0.002594	0.021667	0.000153	0.016174	-0.010986	-0.003052	0.007172
4.699	0.007324	-0.063934	-0.02243	0.036774	0.004578	-0.007935	-0.005341	-0.017548	0.017853	-0.045166	0.022125	0.22522	0.40497	-0.38879	0.058594	0.072021	0.012207	-0.099182	-0.027313	0.28564	-0.059814	-0.12451	-0.051727	-0.029449	0.019226	0.000458	0.027924	-0.003662	0.025177	0.006256	-0.003052	0.00885
4.7	0.005798	-0.098724	-0.032349	0.018463	0.005646	-0.022278	0.005493	0.011749	-0.023804	0.075531	-0.002289	0.20737	-0.1416	-0.051117	-0.022583	0.12329	0.016327	-0.013733	-0.1767	0.42084	-0.077209	-0.12695	-0.05661	0.007324	0.037537	0.000763	0.014954	0.000305	0.068054	0.001984	-0.002136	0.00351
